<svg version="1.1" id="Icon_Set" xmlns="http://www.w3.org/2000/svg" x="0" y="0" viewBox="0 0 64 64" style="enable-background:new 0 0 64 64" xml:space="preserve"><style>.st0,.st5{fill:none;stroke:#37474f;stroke-linecap:round;stroke-linejoin:round;stroke-miterlimit:10}.st5{fill:#9ccc65}</style><g id="Entrance"><path class="st0" d="M39 59.5h19.5c1.4 0 2.5-1.1 2.5-2.5V3C61 1.6 59.9.5 58.5.5h-33C24.1.5 23 1.6 23 3v6M11 8.5H6M4 8.5H3M45.6 51.5h5M52.6 51.5h1"/><g><path class="st5" d="M42.1 14.4c-.3-.3-.4-.6-.4-1.1 0-.8.7-1.5 1.5-1.5h11.3c.8 0 1.5.7 1.5 1.5s-.7 1.5-1.5 1.5H43.2c-.4 0-.8-.2-1.1-.4z"/><path class="st5" d="M48.1 19.7c-.6-.6-.6-1.5 0-2.1l4.2-4.2-4.2-4.2c-.6-.6-.6-1.5 0-2.1s1.5-.6 2.1 0l5.3 5.3c.6.6.6 1.5 0 2.1l-5.3 5.3c-.5.5-1.5.5-2.1-.1z"/></g><g><circle transform="rotate(-67.5 29.915 17.987)" class="st0" cx="29.9" cy="18" r="6"/><path d="m35.1 16.4.6-.2c-.5-1.6-1.7-3-3.4-3.8-3.1-1.3-6.6.2-7.8 3.2l.5.2c3.1 1.4 6.7 1.6 10.1.6z" style="fill:#ffb300;stroke:#37474f;stroke-linecap:round;stroke-linejoin:round;stroke-miterlimit:10"/><g><path class="st0" d="M18.2 46.2 13 61.4c-.2.5.1 1 .6 1.3l2 .8c.5.2 1.1 0 1.3-.5l7-14.5"/><path class="st0" d="M29.8 35.4c.1 1.9 1.3 3.5 3.1 4.3l7.5 3.1 1.5-3.7-8.1-3.4-.5-6.8c-.1-1.9-1.3-3.5-3.1-4.3l-7.1-3c-.7-.3-1.5-.4-2.3-.4l-8.1.6c-1.8.2-3.5 1.4-4.2 3.2l-3.1 7.5L9.1 34l3.4-8.1 7.9-.6-5 12c-1.1 2.6.2 5.5 2.7 6.5L28.3 48 25 58.3c-.2.5.1 1 .6 1.2l2 .8c.5.2 1.1 0 1.3-.5l4.9-10.2c1.2-2.6.1-5.7-2.6-6.8L26.9 41l2.9-7v1.4z"/><path class="st0" d="M8.3 35.9h0c-.4 1-1.6 1.5-2.6 1.1h0c-1-.4-1.5-1.6-1.1-2.6h0M43.8 39.9h0c1 .4 1.5 1.6 1.1 2.6h0c-.4 1-1.6 1.5-2.6 1.1h0M26.8 41.1l-11-4.6"/></g></g></g></svg>