<svg xmlns="http://www.w3.org/2000/svg" viewBox="0 0 52.58 64"><g data-name="Layer 2"><path d="M8.4 47.78a1 1 0 0 0 1 1h33.28a1 1 0 0 0 0-2H9.4a1 1 0 0 0-1 1zM13.47 53.39H9.4a1 1 0 0 0 0 2h4.07a1 1 0 0 0 0-2zM23.21 53.39h-4.07a1 1 0 0 0 0 2h4.07a1 1 0 0 0 0-2zM32.94 53.39h-4.06a1 1 0 0 0 0 2h4.07a1 1 0 0 0 0-2zM42.68 53.39h-4.07a1 1 0 0 0 0 2h4.07a1 1 0 0 0 0-2zM34.08 38.42a1 1 0 0 0 1.41 0l1.33-1.33 1.33 1.33A1 1 0 0 0 39.57 37l-1.33-1.33 1.33-1.33a1 1 0 0 0-1.41-1.41l-1.33 1.33-1.33-1.33a1 1 0 0 0-1.41 1.41l1.33 1.33L34.08 37a1 1 0 0 0 0 1.42zM14.41 33.4a3.59 3.59 0 0 0-3.51 5.54 3.55 3.55 0 0 0 2.94 1.58 3.58 3.58 0 0 0 2.38-6.25c2-4.67 5.69-5.16 8.49-4.7a9.59 9.59 0 0 0 9.91-5.21l1.33.75A1 1 0 0 0 37.42 24l-.79-4a1 1 0 0 0-1.32-.75l-3.82 1.4a1 1 0 0 0-.15 1.81l1.53.86A7.63 7.63 0 0 1 25 27.59c-4.79-.78-8.61 1.32-10.59 5.81zm1 3.83a1.58 1.58 0 0 1-1.83 1.26 1.54 1.54 0 0 1-1-.66 1.6 1.6 0 0 1 1.3-2.48h.29l.21.07a1 1 0 0 0 .27.16h.09a1.59 1.59 0 0 1 .64 1.65zM14 16.77a1 1 0 0 0 0 1.41l1.33 1.33L14 20.85a1 1 0 1 0 1.41 1.41l1.33-1.33 1.33 1.33a1 1 0 0 0 1.41-1.41l-1.33-1.33 1.33-1.33a1 1 0 0 0-1.41-1.41l-1.34 1.32-1.33-1.33a1 1 0 0 0-1.4 0zM38.36 17.14a3.57 3.57 0 1 0-2.26-1.51 3.55 3.55 0 0 0 2.26 1.51zm-.83-3.82a1.58 1.58 0 0 1 .67-1 1.54 1.54 0 0 1 .86-.26h.3a1.54 1.54 0 0 1 1 .66 1.61 1.61 0 0 1-.44 2.22 1.54 1.54 0 0 1-2.14-.42 1.58 1.58 0 0 1-.25-1.2z"/><path d="M51.58 0H13.87a1 1 0 0 0-.37.07l-.12.07a1 1 0 0 0-.16.09L.35 11.15a1 1 0 0 0-.17.23 1 1 0 0 0-.07.1 1 1 0 0 0-.09.4H0V63a1 1 0 0 0 1 1h50.58a1 1 0 0 0 1-1V1a1 1 0 0 0-1-1zM12.87 3.16v7.77H3.72zM50.58 62H2V12.91h11.87a1 1 0 0 0 1-1V2h35.71z"/></g></svg>