<svg xmlns="http://www.w3.org/2000/svg" width="128" height="128" xml:space="preserve"><path fill="#282D33" d="m63.997 126.628-41.531-24.154V85.021h4.001v15.152L63.997 122l37.536-21.827V85.021h4.001v17.453z"/><path fill="#282D33" d="M61.999 86.087h4.002v34.938h-4.002z"/><path fill="#282D33" d="M82.541 99.391 60.016 86.289l45.454-26.406 22.53 13.1-45.459 26.408zm-14.563-13.1 14.565 8.472 37.494-21.781-14.567-8.471-37.492 21.78z"/><path fill="#282D33" d="M45.453 99.391 0 72.983l22.524-13.101 45.458 26.406-22.529 13.103zM7.962 72.981l37.49 21.781 14.567-8.472-37.494-21.78-14.563 8.471z"/><g><path fill="#282D33" d="M22.524 64.461.02 51.37l36.868-21.701 2.03 3.449L7.942 51.35l14.583 8.483 10.558-6.134 2.011 3.46zM105.471 64.461l-23.99-13.937 2.01-3.46 21.978 12.769 14.569-8.472-31.185-18.116 2.01-3.46L128 51.359z"/></g><g><path fill="#282D33" d="M56.025 80.862h-4.002V66.22h-9.365c-5.061 0-9.177-4.142-9.177-9.232v-8.582h-7.634l10.035-17.511a24.165 24.165 0 0 1-.011-.713c0-15.886 12.837-28.81 28.615-28.81s28.615 12.924 28.615 28.81c0 7.4-2.754 14.377-7.773 19.74v23.922h-4.001V48.293l.579-.585c4.639-4.683 7.194-10.907 7.194-17.526 0-13.679-11.041-24.809-24.614-24.809-13.572 0-24.614 11.13-24.614 24.809 0 .378.013.752.028 1.126l.024.578-7.173 12.518h4.729v12.583c0 2.884 2.322 5.23 5.176 5.23h13.367v18.645z"/></g></svg>